REM DISCID 2804A003
REM COMMENT "ExactAudioCopy v0.95b3"
PERFORMER "Juno Reactor"
TITLE "Laughing Gas"
FILE "01 - Laughing Gas.wav" WAVE
  TRACK 01 AUDIO
    TITLE "Laughing Gas"
    PERFORMER "Juno Reactor"
    INDEX 01 00:00:00
  TRACK 02 AUDIO
    TITLE "Laughing Gas (On the other side mix)"
    PERFORMER "Juno Reactor"
    INDEX 00 07:55:27
FILE "02 - Laughing Gas (On the other side mix).wav" WAVE
    INDEX 01 00:00:00
  TRACK 03 AUDIO
    TITLE "Lullaby"
    PERFORMER "Juno Reactor"
    INDEX 00 06:46:23
FILE "03 - Lullaby.wav" WAVE
    INDEX 01 00:00:00
